<?xml version="1.0" encoding="utf-8"?>
<!-- Generator: Adobe Illustrator 24.1.2, SVG Export Plug-In . SVG Version: 6.00 Build 0)  -->
<svg version="1.1" id="Layer_1" xmlns="http://www.w3.org/2000/svg" xmlns:xlink="http://www.w3.org/1999/xlink" x="0px" y="0px"
	 viewBox="0 0 80 80" style="enable-background:new 0 0 80 80;" xml:space="preserve">
<style type="text/css">
	.st0{fill:#2E3192;}
</style>
<path class="st0" d="M9.6,30.1l-0.5-0.3L9,30.3c-0.8,2.6-1.3,5.4-1.3,8.2c0,0.9,0.1,1.8,0.1,2.8l0.1,0.7l0.6-0.3
	c0.6-0.3,1.2-0.5,1.8-0.6l0.4-0.1v-0.4c-0.1-0.7-0.1-1.3-0.1-2c0-2.4,0.3-4.7,1-7l0.1-0.4l-0.4-0.1C10.8,30.7,10.2,30.4,9.6,30.1z"
	/>
<path class="st0" d="M16.8,44.4l0.2,0.5l11-6.5L27.7,38c-0.4-0.5-0.7-1.1-1-1.7l-0.2-0.5l-11.2,6.5l0.4,0.4
	C16.2,43.3,16.5,43.8,16.8,44.4z"/>
<path class="st0" d="M19.9,26.4c-0.2,0.6-0.5,1.2-0.8,1.8l-0.3,0.4l7.6,3.6l0.2-0.5c0.2-0.6,0.5-1.2,0.8-1.7l0.3-0.4L20,25.9
	L19.9,26.4z"/>
<path class="st0" d="M18.2,19.6l0.2,0.2l0.3,0.3l0.3-0.3c3-2.8,6.5-4.9,10.4-6.2c0.9-0.3,1.8-0.5,2.7-0.7l0.5-0.1l-0.1-0.5
	c-0.2-0.5-0.2-1.1-0.2-1.6c0-0.1,0-0.2,0-0.3V9.9l-0.6,0.1c-1.1,0.2-2.1,0.5-3.2,0.9c-4.4,1.5-8.3,3.8-11.7,7l-0.4,0.4l0.5,0.3
	C17.3,18.9,17.8,19.3,18.2,19.6z"/>
<path class="st0" d="M52.3,15.6l0.4,0.2l0.2-0.4c0.2-0.6,0.6-1.2,1-1.7l0.4-0.4L53.7,13c-2.9-1.3-5.9-2.3-9-3l-0.6-0.1v0.6v0.3
	c0,0.5,0,1-0.2,1.5l-0.1,0.5l0.5,0.1C47.1,13.5,49.7,14.4,52.3,15.6z"/>
<path class="st0" d="M19.7,22.5c0.1,0.6,0.2,1.3,0.1,1.9V25l14-2L33,26.9l0.6,0c0.7,0.1,1.3,0.2,1.9,0.4l0.5,0.2l1.2-5l15.6-2.2
	l-0.3-0.5c-0.2-0.6-0.4-1.3-0.4-1.9v-0.5l-14.2,2l0.7-2.7h-0.5c-0.6,0-1.3-0.1-1.9-0.4l-0.5-0.2l-0.9,3.7L19.7,22L19.7,22.5z"/>
<path class="st0" d="M65.8,28l0.2,0.4l0.4-0.2c0.6-0.2,1.2-0.4,1.9-0.4h0.6l-0.3-0.6c-0.8-1.9-1.9-3.7-3.2-5.3L65,21.3l-0.3,0.5
	c-0.2,0.3-0.5,0.6-0.8,0.9c-0.2,0.2-0.4,0.3-0.5,0.5L63,23.5l0.3,0.4C64.3,25.2,65.1,26.5,65.8,28z"/>
<path class="st0" d="M62.8,35.1l-0.1-0.5c-0.1-0.3-0.1-0.6-0.1-0.9c0-0.2,0-0.5,0.1-0.7l0.1-0.3h-5.2c0.5-3,1-4.9,1.5-7.2l0.1-0.6
	l-0.5-0.1c-0.6-0.1-1.3-0.2-1.9-0.4l-0.5-0.2l-0.1,0.5c-0.5,2.5-1.1,5.1-1.7,7.6v0.3H39.7l0.1,0.3c0,0.3,0.1,0.6,0.1,0.9
	c0,0.3,0,0.6-0.1,0.9l-0.1,0.5h14.2c-0.5,2-1,4.7-1.5,7.1L52.3,43h0.5c0.6-0.1,1.2,0,1.8,0.2l0.5,0.2l0.1-0.7
	c0.5-2.6,1.1-5.7,1.7-7.6L62.8,35.1z"/>
<path class="st0" d="M50,50l-0.3-0.3L49.4,50c-2,2.2-4.5,2.9-6.8,3.6c-3.1,0.9-6,1.9-7,5.6l-3.8,14h3.1L38.4,60
	c0.6-2.1,2.5-2.8,5-3.5c2.8-0.8,5.9-1.8,8.5-4.8l0.5-0.5L51.6,51C51,50.8,50.5,50.4,50,50z"/>
<path class="st0" d="M17.6,54.4c-1-0.6-1.9-1.4-2.6-2.3l-0.3-0.3L14.4,52c-0.6,0.4-1.2,0.6-1.9,0.7l-0.7,0.2l0.4,0.6
	c1,1.3,2.3,2.5,3.7,3.4c1.4,0.9,3,1.6,4.6,2l0.6,0.2l-0.1-0.7c0-0.2,0-0.3,0-0.5c0-0.5,0.1-1,0.2-1.4l0.2-0.5l-0.5-0.1
	C19.9,55.6,18.7,55.1,17.6,54.4z"/>
<path class="st0" d="M68.8,39.7c-0.7,0-1.4-0.1-2-0.3l-0.4-0.1l-0.2,0.4c-0.7,1.7-2,3.1-3.6,4c-1.7,0.9-3.5,1.4-5.4,1.5l-0.5,0
	l0.1,0.5c0.1,0.3,0.2,0.7,0.2,1.1c0,0.3,0,0.5-0.1,0.8l-0.1,0.6l0.6-0.1c2.3-0.2,4.6-0.8,6.7-1.9c2.4-1.3,4.3-3.4,5.2-6l0.2-0.6
	L68.8,39.7z"/>
<path class="st0" d="M29.9,48.4h18.9l-0.1-0.5c-0.1-0.3-0.1-0.6-0.1-0.9c0-0.3,0-0.6,0.1-0.9l0.1-0.3l0.1-0.3c0.2-0.6,0.6-1,1-1.5
	l0.1-0.1l0.4-0.4l-11-7.3l-0.2,0.5c-0.3,0.6-0.6,1.1-1.1,1.6l-0.3,0.4L48,45.4H30.9l1.6-4.9l-0.5-0.1c-0.6-0.1-1.3-0.3-1.8-0.6
	l-0.5-0.2l-1.8,5.8H17.2l0.1,0.5c0.1,0.3,0.1,0.7,0.1,1c0,0.3,0,0.7-0.1,1l-0.1,0.5h9.6l-1.7,5.3h0.6c0.6,0,1.2,0.2,1.8,0.6l0.5,0.3
	L29.9,48.4z"/>
<path class="st0" d="M33.7,60.6c-0.1-0.9-0.4-1.8-1-2.5c-0.6-0.8-1.5-1.3-2.5-1.5c-0.1,0-0.1,0-0.2-0.1l-0.7-0.2l0.1,0.7
	c0.1,0.3,0.1,0.6,0.1,0.9c0,0.4,0,0.7-0.1,1.1l-0.1,0.4l0.4,0.1c0.3,0.1,0.5,0.3,0.7,0.5c0.2,0.2,0.3,0.5,0.3,0.8
	c0,0.4,0,0.8-0.1,1.1l-3,11.2h3.1l2.8-10.4C33.7,62.1,33.7,61.3,33.7,60.6z"/>
<path class="st0" d="M59.1,13.3c-2.6,0-4.7,2.1-4.7,4.7c0,2.6,2.1,4.7,4.7,4.7c2.6,0,4.7-2.1,4.7-4.7C63.8,15.4,61.7,13.3,59.1,13.3
	C59.1,13.3,59.1,13.3,59.1,13.3z"/>
<path class="st0" d="M25.4,55.8c-1.2,0-2.1,0.9-2.1,2.1c0,1.2,0.9,2.1,2.1,2.1c1.2,0,2.1-0.9,2.1-2.1c0,0,0,0,0,0
	C27.5,56.7,26.5,55.8,25.4,55.8z"/>
<path class="st0" d="M52.8,44.8c-1.2,0-2.1,0.9-2.1,2.1c0,1.2,0.9,2.1,2.1,2.1c1.2,0,2.1-0.9,2.1-2.1c0,0,0,0,0,0
	C54.9,45.7,54,44.8,52.8,44.8z"/>
<path class="st0" d="M68.7,29.8c-2.2,0-3.9,1.8-3.9,3.9s1.8,3.9,3.9,3.9s3.9-1.8,3.9-3.9S70.8,29.8,68.7,29.8L68.7,29.8z"/>
<path class="st0" d="M13.4,19.7c-2.6,0-4.7,2.1-4.7,4.7s2.1,4.7,4.7,4.7s4.7-2.1,4.7-4.7c0,0,0,0,0,0C18.1,21.8,16,19.7,13.4,19.7z"
	/>
<path class="st0" d="M38.2,6.8c-2.2,0-3.9,1.8-3.9,3.9c0,2.2,1.8,3.9,3.9,3.9c2.2,0,3.9-1.8,3.9-3.9C42.1,8.6,40.4,6.8,38.2,6.8z"/>
<path class="st0" d="M11.4,43c-2.2,0-3.9,1.7-3.9,3.9c0,2.2,1.7,3.9,3.9,3.9s3.9-1.7,3.9-3.9c0,0,0,0,0,0C15.3,44.8,13.5,43,11.4,43
	z"/>
<path class="st0" d="M33,29c-2.6,0-4.7,2.1-4.7,4.7s2.1,4.7,4.7,4.7s4.7-2.1,4.7-4.7C37.7,31.1,35.6,29,33,29z"/>
</svg>
